<svg width="1440" height="519" viewBox="0 0 1440 519" fill="none" xmlns="http://www.w3.org/2000/svg">
<path fill-rule="evenodd" clip-rule="evenodd" d="M-509 245.015L-474.485 256.515C-439.97 268.014 -369.022 291.013 -299.992 256.515C-230.962 222.017 -160.015 130.022 -90.985 141.521C-20.0375 153.02 48.9925 268.014 118.023 302.512C188.97 337.01 258 291.013 327.03 245.015C397.978 199.018 467.008 153.02 536.037 95.5237C606.985 38.0269 676.015 -30.9693 746.963 15.0282C815.993 61.0256 885.022 222.017 955.97 268.014C1025 314.012 1094.03 245.015 1164.98 222.017C1234.01 199.018 1303.04 222.017 1373.98 199.018C1443.02 176.019 1513.96 107.023 1582.99 107.023C1652.02 107.023 1722.97 176.019 1757.49 210.517L1792 245.015V521H1757.49C1722.97 521 1652.02 521 1582.99 521C1513.96 521 1443.02 521 1373.98 521C1303.04 521 1234.01 521 1164.98 521C1094.03 521 1025 521 955.97 521C885.022 521 815.993 521 746.963 521C676.015 521 606.985 521 536.037 521C467.008 521 397.978 521 327.03 521C258 521 188.97 521 118.023 521C48.9925 521 -20.0375 521 -90.985 521C-160.015 521 -230.962 521 -299.992 521C-369.022 521 -439.97 521 -474.485 521H-509V245.015Z" fill="#06A6F0" fill-opacity="0.1"/>
</svg>
