<svg width="14" height="8" viewBox="0 0 14 8" fill="none" xmlns="http://www.w3.org/2000/svg">
<path fill-rule="evenodd" clip-rule="evenodd" d="M7.70637 7.70698C7.51884 7.89445 7.26453 7.99976 6.99937 7.99976C6.7342 7.99976 6.47989 7.89445 6.29237 7.70698L0.635367 2.04998C0.539856 1.95773 0.463674 1.84739 0.411265 1.72538C0.358856 1.60338 0.33127 1.47216 0.330116 1.33938C0.328962 1.2066 0.354264 1.07492 0.404545 0.952023C0.454826 0.829127 0.529079 0.717474 0.622972 0.623581C0.716864 0.529689 0.828516 0.455436 0.951412 0.405155C1.07431 0.354874 1.20599 0.329572 1.33877 0.330726C1.47155 0.33188 1.60277 0.359466 1.72477 0.411875C1.84677 0.464284 1.95712 0.540466 2.04937 0.635976L6.99937 5.58598L11.9494 0.635976C12.138 0.453818 12.3906 0.353024 12.6528 0.355302C12.915 0.357581 13.1658 0.46275 13.3512 0.648158C13.5366 0.833566 13.6418 1.08438 13.644 1.34658C13.6463 1.60877 13.5455 1.86137 13.3634 2.04998L7.70637 7.70698Z" fill="black"/>
</svg>
